<?xml version="1.0" encoding="UTF-8" standalone="no"?>
<!DOCTYPE svg PUBLIC "-//W3C//DTD SVG 20010904//EN"
"http://www.w3.org/TR/2001/REC-SVG-20010904/DTD/svg10.dtd">
<!-- Created with Sodipodi ("http://www.sodipodi.com/") -->
<svg
   xmlns:dc="http://purl.org/dc/elements/1.1/"
   xmlns:cc="http://web.resource.org/cc/"
   xmlns:rdf="http://www.w3.org/1999/02/22-rdf-syntax-ns#"
   xmlns:svg="http://www.w3.org/2000/svg"
   xmlns="http://www.w3.org/2000/svg"
   xmlns:sodipodi="http://sodipodi.sourceforge.net/DTD/sodipodi-0.dtd"
   xmlns:inkscape="http://www.inkscape.org/namespaces/inkscape"
   xml:space="preserve"
   width="257mm"
   height="95mm"
   style="shape-rendering:geometricPrecision; text-rendering:geometricPrecision; image-rendering:optimizeQuality; fill-rule:evenodd"
   viewBox="0 0 8268 11692"
   id="svg2"
   sodipodi:version="0.34"
   inkscape:version="0.43"
   sodipodi:docname="D:\Dokumenty\Wikipedie\images\svg\Notes.svg"
   xmlns:xlink="http://www.w3.org/1999/xlink"><metadata
   id="metadata34"><rdf:RDF><cc:Work
   rdf:about=""><dc:format>image/svg+xml</dc:format><dc:type
   rdf:resource="http://purl.org/dc/dcmitype/StillImage" /></cc:Work></rdf:RDF></metadata><sodipodi:namedview
   inkscape:window-height="540"
   inkscape:window-width="767"
   inkscape:pageshadow="2"
   inkscape:pageopacity="0.0"
   borderopacity="1.0"
   bordercolor="#666666"
   pagecolor="#ffffff"
   id="base"
   inkscape:zoom="0.35539137"
   inkscape:cx="372.04742"
   inkscape:cy="526.18048"
   inkscape:window-x="198"
   inkscape:window-y="198"
   inkscape:current-layer="svg2" /><defs
   id="defs4"><style
   type="text/css"
   id="style6">
   
    .str1 {stroke:#131516;stroke-width:3}
    .str0 {stroke:#131516;stroke-width:42}
    .fil0 {fill:none}
    .fil1 {fill:#131516}
   
  </style></defs><g
   id="Layer 1"
   transform="matrix(3.134585,0,0,3.156688,-6354.321,-12541.71)"><path
   class="fil0 str0"
   d="M -1503,5277 L 8195,5277"
   id="path9"
   style="fill:none;stroke:#131516;stroke-width:42" /><path
   class="fil0 str0"
   d="M -1503,6931 L 8195,6931"
   id="path11"
   style="fill:none;stroke:#131516;stroke-width:42" /><path
   class="fil0 str0"
   d="M -1503,6379 L 8195,6379"
   id="path13"
   style="fill:none;stroke:#131516;stroke-width:42" /><path
   class="fil0 str0"
   d="M -1503,5828 L 8195,5828"
   id="path15"
   style="fill:none;stroke:#131516;stroke-width:42" /><path
   class="fil0 str0"
   d="M -1503,7482 L 8195,7482"
   id="path17"
   style="fill:none;stroke:#131516;stroke-width:42" /><path
   class="fil1 str1"
   d="M 1052,6434 L 1052,4910 L 1100,4910 L 1100,6610 C 1099,6664 1078,6715 1037,6764 C 996,6813 947,6853 888,6883 C 830,6912 775,6928 724,6930 C 671,6930 629,6923 597,6910 C 566,6897 543,6875 528,6843 C 514,6811 506,6766 506,6709 C 508,6648 529,6593 570,6544 C 612,6496 664,6458 726,6430 C 788,6403 849,6390 908,6390 C 965,6390 1013,6404 1052,6434 z M 694,6618 C 673,6631 646,6657 613,6696 C 580,6735 562,6768 560,6796 C 564,6824 582,6841 612,6848 C 642,6848 681,6838 729,6818 C 776,6799 822,6772 866,6738 C 895,6719 932,6685 976,6637 C 1020,6589 1042,6550 1042,6520 C 1042,6492 1028,6475 998,6468 C 925,6468 824,6518 694,6618 z "
   id="path19"
   style="fill:#131516;stroke:#131516;stroke-width:3" /><path
   class="fil1 str1"
   d="M -668,6610 C -664,6684 -642,6746 -602,6794 C -562,6842 -514,6866 -458,6866 C -415,6861 -385,6847 -368,6823 C -352,6799 -344,6757 -344,6698 C -350,6622 -372,6560 -412,6513 C -452,6466 -500,6442 -558,6442 C -598,6449 -626,6463 -643,6486 C -660,6508 -668,6550 -668,6610 z M -918,6652 C -918,6591 -896,6542 -851,6505 C -806,6467 -752,6441 -689,6425 C -627,6410 -569,6402 -516,6402 C -458,6402 -397,6410 -334,6425 C -270,6440 -215,6467 -168,6504 C -121,6541 -96,6591 -94,6652 C -94,6713 -116,6763 -161,6801 C -206,6839 -260,6866 -322,6882 C -385,6898 -444,6906 -500,6906 C -560,6906 -621,6898 -685,6883 C -748,6867 -802,6841 -848,6803 C -893,6765 -917,6715 -918,6652 z "
   id="path21"
   style="fill:#131516;stroke:#131516;stroke-width:3" /><path
   class="fil1 str1"
   d="M 2292,4910 L 2292,6582 C 2292,6644 2272,6700 2232,6749 C 2192,6799 2141,6838 2080,6865 C 2018,6892 1958,6906 1899,6906 C 1843,6906 1796,6891 1758,6862 C 1720,6832 1699,6791 1695,6738 C 1697,6680 1719,6625 1760,6574 C 1801,6523 1853,6482 1914,6452 C 1975,6421 2035,6406 2093,6406 C 2152,6406 2203,6423 2244,6456 L 2244,4910 L 2292,4910 z "
   id="path23"
   style="fill:#131516;stroke:#131516;stroke-width:3" /><path
   class="fil1 str1"
   d="M 3441,4906 L 3489,4906 C 3501,4982 3516,5046 3536,5098 C 3555,5149 3578,5193 3603,5230 C 3629,5267 3668,5314 3720,5372 C 3772,5430 3813,5479 3845,5520 C 3941,5643 3989,5772 3989,5906 C 3989,6044 3931,6212 3813,6410 L 3781,6410 C 3796,6375 3814,6335 3834,6290 C 3853,6244 3870,6203 3884,6166 C 3897,6129 3908,6092 3916,6055 C 3923,6018 3927,5982 3927,5946 C 3927,5889 3916,5832 3893,5775 C 3870,5717 3837,5664 3796,5615 C 3754,5566 3707,5527 3654,5496 C 3601,5466 3546,5449 3489,5446 L 3489,6578 C 3489,6642 3470,6700 3430,6750 C 3391,6800 3340,6839 3278,6866 C 3217,6893 3156,6906 3095,6906 C 3037,6906 2988,6891 2949,6862 C 2911,6833 2891,6790 2891,6734 C 2891,6675 2911,6620 2950,6569 C 2989,6519 3039,6479 3099,6450 C 3159,6421 3217,6406 3273,6406 C 3351,6406 3407,6421 3441,6452 L 3441,5430 L 3441,4906 z "
   id="path25"
   style="fill:#131516;stroke:#131516;stroke-width:3" /><path
   class="fil1 str1"
   d="M 4638,6456 L 4638,4910 L 4690,4910 C 4697,4987 4714,5047 4742,5088 C 4769,5129 4814,5178 4878,5233 C 4941,5289 4990,5340 5026,5386 C 5078,5451 5117,5514 5145,5574 C 5172,5634 5186,5703 5186,5782 C 5186,5843 5177,5906 5158,5972 C 5193,6019 5210,6093 5210,6192 C 5210,6256 5202,6319 5185,6382 C 5167,6445 5142,6500 5109,6546 L 5076,6546 C 5139,6424 5170,6317 5170,6226 C 5170,6052 5069,5914 4866,5812 C 4851,5804 4830,5791 4803,5772 C 4775,5754 4753,5739 4739,5730 C 4724,5721 4708,5712 4690,5706 L 4690,6586 C 4690,6646 4670,6701 4631,6750 C 4591,6799 4541,6837 4480,6865 C 4419,6892 4359,6906 4300,6906 C 4243,6906 4196,6893 4159,6867 C 4121,6841 4100,6802 4096,6750 C 4096,6691 4116,6635 4157,6582 C 4198,6529 4250,6487 4312,6456 C 4375,6425 4435,6410 4494,6410 C 4555,6410 4603,6425 4638,6456 z M 4702,5282 C 4702,5370 4725,5446 4771,5510 C 4818,5574 4884,5647 4971,5730 C 5057,5813 5111,5875 5133,5917 C 5138,5891 5140,5863 5140,5833 C 5140,5767 5127,5705 5100,5649 C 5073,5592 5038,5541 4996,5497 C 4954,5453 4908,5414 4859,5379 C 4809,5344 4757,5312 4702,5282 z "
   id="path27"
   style="fill:#131516;stroke:#131516;stroke-width:3" /><path
   class="fil1 str1"
   d="M 5825,6456 L 5825,4620 L 5874,4620 C 5880,4687 5893,4740 5913,4777 C 5933,4814 5962,4852 6003,4890 C 6043,4928 6100,4981 6173,5050 C 6304,5176 6369,5324 6369,5496 C 6369,5555 6361,5613 6345,5672 C 6361,5722 6369,5776 6369,5832 C 6369,5876 6363,5927 6349,5984 C 6381,6025 6397,6090 6397,6180 C 6397,6242 6389,6306 6371,6370 C 6354,6434 6329,6491 6295,6542 L 6263,6542 C 6323,6417 6353,6309 6353,6218 C 6353,6160 6342,6107 6319,6060 C 6296,6012 6264,5969 6223,5930 C 6182,5892 6138,5856 6090,5823 C 6042,5791 5970,5744 5874,5684 L 5874,6586 C 5874,6645 5854,6699 5814,6748 C 5774,6797 5724,6836 5663,6864 C 5602,6892 5542,6906 5483,6906 C 5423,6906 5374,6891 5336,6862 C 5298,6832 5279,6788 5279,6730 C 5279,6673 5300,6620 5341,6571 C 5381,6522 5433,6483 5495,6453 C 5557,6424 5615,6410 5670,6410 C 5735,6410 5787,6425 5825,6456 z M 5881,4984 C 5881,5043 5895,5094 5921,5135 C 5947,5177 5993,5228 6058,5288 C 6123,5348 6174,5397 6211,5437 C 6248,5477 6283,5531 6315,5598 C 6319,5574 6321,5551 6321,5530 C 6321,5448 6299,5374 6254,5307 C 6209,5239 6159,5184 6102,5140 C 6046,5096 5972,5044 5881,4984 z M 5877,5332 C 5881,5395 5899,5451 5931,5501 C 5963,5551 6003,5599 6052,5646 C 6101,5692 6152,5739 6204,5788 C 6256,5837 6293,5882 6315,5922 C 6317,5911 6317,5895 6317,5874 C 6317,5672 6171,5491 5877,5332 z "
   id="path29"
   style="fill:#131516;stroke:#131516;stroke-width:3" /><path
   class="fil1 str1"
   d="M 7029,6444 L 7029,4476 L 7029,4168 L 7077,4168 C 7077,4246 7095,4310 7132,4359 C 7169,4407 7228,4470 7311,4547 C 7394,4624 7457,4698 7499,4769 C 7541,4841 7562,4932 7562,5042 C 7562,5095 7555,5158 7542,5230 C 7566,5276 7578,5335 7578,5406 C 7578,5474 7566,5538 7542,5598 C 7568,5658 7582,5722 7582,5788 C 7582,5853 7568,5912 7542,5964 C 7573,6011 7589,6078 7589,6164 C 7589,6286 7559,6410 7499,6538 L 7463,6538 C 7518,6382 7545,6261 7545,6176 C 7545,6111 7533,6059 7509,6018 C 7484,5977 7456,5945 7425,5923 C 7394,5901 7340,5867 7263,5821 C 7186,5775 7126,5734 7081,5698 L 7077,6574 C 7077,6640 7057,6698 7018,6749 C 6978,6800 6928,6838 6867,6865 C 6806,6892 6746,6906 6687,6906 C 6627,6906 6578,6892 6538,6863 C 6499,6834 6479,6793 6479,6738 C 6479,6680 6500,6625 6542,6575 C 6583,6524 6637,6484 6701,6454 C 6765,6424 6828,6410 6889,6410 C 6948,6410 6994,6421 7029,6444 z M 7081,4906 C 7081,4975 7095,5032 7122,5078 C 7149,5124 7196,5176 7262,5235 C 7328,5294 7380,5342 7417,5381 C 7454,5420 7488,5472 7519,5538 C 7525,5513 7527,5486 7527,5456 C 7527,5379 7506,5306 7462,5237 C 7419,5167 7364,5105 7296,5051 C 7229,4996 7157,4948 7081,4906 z M 7077,5274 C 7077,5341 7094,5404 7127,5461 C 7160,5518 7204,5574 7258,5629 C 7313,5683 7365,5735 7415,5783 C 7464,5832 7498,5876 7515,5914 C 7522,5881 7525,5852 7525,5828 C 7525,5710 7480,5603 7389,5506 C 7298,5410 7194,5333 7077,5274 z M 7081,4534 C 7081,4600 7094,4656 7119,4701 C 7144,4746 7190,4799 7255,4860 C 7321,4921 7371,4970 7407,5007 C 7442,5044 7478,5098 7515,5168 C 7519,5142 7521,5118 7521,5094 C 7521,5001 7498,4920 7452,4850 C 7406,4779 7353,4722 7295,4678 C 7237,4634 7166,4586 7081,4534 z "
   id="path31"
   style="fill:#131516;stroke:#131516;stroke-width:3" /></g></svg>
