<svg width="274" height="169" xmlns="http://www.w3.org/2000/svg" xmlns:xlink="http://www.w3.org/1999/xlink" xml:space="preserve" overflow="hidden"><defs><clipPath id="clip0"><rect x="789" y="1297" width="274" height="169"/></clipPath></defs><g clip-path="url(#clip0)" transform="translate(-789 -1297)"><path d="M899.927 1297.78C942.204 1293.1 1054.23 1308.39 1062.47 1374.21 1070.71 1440.03 981.183 1465.76 928.732 1466 876.281 1466.24 787.095 1435.24 789.031 1385.98 790.966 1336.72 815.396 1323.15 852.651 1309.55 889.906 1295.96 888.186 1300.68 892.198 1314.71 866.119 1334.74 864.974 1358.5 876.724 1393.71 888.473 1428.92 931.965 1463.5 957.538 1448.67 983.111 1433.84 983.594 1383.73 973.421 1361.4 963.248 1339.08 944.855 1302.12 896.497 1314.7 884.248 1304.1 857.649 1302.46 899.927 1297.78Z" fill="#4472C4" fill-rule="evenodd"/></g></svg>