<svg width="1492" height="1050" xmlns="http://www.w3.org/2000/svg" xmlns:xlink="http://www.w3.org/1999/xlink" xml:space="preserve" overflow="hidden"><defs><clipPath id="clip0"><rect x="264" y="1462" width="1492" height="1050"/></clipPath></defs><g clip-path="url(#clip0)" transform="translate(-264 -1462)"><path d="M1172.67 1462C1362.09 1633.08 1445.63 1840.47 1447.96 1984.94 1450.28 2129.42 1353.79 2387.96 1170.11 2512 989.185 2394.61 892.375 2131.65 890.049 1981.63 887.724 1831.6 966.977 1635.99 1172.67 1462Z" fill="#E7E6E6" fill-rule="evenodd"/><path d="M265.5 1988.5C1062.14 1576.2 325.946 1951.96 1063.15 1573.5 1295.96 1634.91 1096.22 1579.24 1336.46 1650.43 1779.14 2007.06 1316.21 1631.2 1753.5 1986.48" stroke="#000000" stroke-width="4.58333" stroke-miterlimit="8" fill="none" fill-rule="evenodd"/><text font-family="Arial,Arial_MSFontService,sans-serif" font-weight="400" font-size="165" transform="matrix(1 0 0 1 866.098 1847)">Lenze</text><text font-family="Arial,Arial_MSFontService,sans-serif" font-weight="400" font-size="165" transform="matrix(1 0 0 1 623.182 2045)">Photography </text><text font-family="Arial,Arial_MSFontService,sans-serif" font-weight="400" font-size="165" transform="matrix(1 0 0 1 815.682 2243)">Studios</text></g></svg>