<svg width="425" height="681" xmlns="http://www.w3.org/2000/svg" xmlns:xlink="http://www.w3.org/1999/xlink" xml:space="preserve" overflow="hidden"><defs><clipPath id="clip0"><rect x="1444" y="1335" width="425" height="681"/></clipPath><clipPath id="clip1"><rect x="1716" y="1776" width="98" height="100"/></clipPath><clipPath id="clip2"><rect x="1716" y="1776" width="98" height="100"/></clipPath><clipPath id="clip3"><rect x="1716" y="1776" width="98" height="100"/></clipPath><clipPath id="clip4"><rect x="1547" y="1573" width="215" height="214"/></clipPath><clipPath id="clip5"><rect x="1547" y="1573" width="215" height="214"/></clipPath><clipPath id="clip6"><rect x="1547" y="1573" width="215" height="214"/></clipPath><clipPath id="clip7"><rect x="1499" y="1474" width="99" height="98"/></clipPath><clipPath id="clip8"><rect x="1499" y="1474" width="99" height="98"/></clipPath><clipPath id="clip9"><rect x="1499" y="1474" width="99" height="98"/></clipPath></defs><g clip-path="url(#clip0)" transform="translate(-1444 -1335)"><path d="M1452.5 1420.17C1452.5 1382.8 1482.8 1352.5 1520.17 1352.5L1790.83 1352.5C1828.2 1352.5 1858.5 1382.8 1858.5 1420.17L1858.5 1938.83C1858.5 1976.2 1828.2 2006.5 1790.83 2006.5L1520.17 2006.5C1482.8 2006.5 1452.5 1976.2 1452.5 1938.83Z" stroke="#000000" stroke-width="4.58333" stroke-miterlimit="8" fill="#FFFFFF" fill-rule="evenodd"/><text fill="#FF0000" font-family="Times New Roman,Times,serif" font-weight="800" font-size="110" transform="matrix(1 0 0 1 1510.97 1475)">A</text><text fill="#FF0000" font-family="Times New Roman,Times,serif" font-weight="800" font-size="110" transform="matrix(-1 1.22465e-16 -1.22465e-16 -1 1802.26 1877)">A</text><g clip-path="url(#clip1)"><g clip-path="url(#clip2)"><g clip-path="url(#clip3)"><path d="M49.0061 12.25 16.3395 49 49.0061 85.75 81.6728 49 49.0061 12.25Z" fill="#FF0000" transform="matrix(1 0 0 1 1716 1777)"/></g></g></g><g clip-path="url(#clip4)"><g clip-path="url(#clip5)"><g clip-path="url(#clip6)"><path d="M1654.51 1599.62 1583.51 1679.5 1654.51 1759.38 1725.51 1679.5 1654.51 1599.62Z" fill="#FF0000"/></g></g></g><g clip-path="url(#clip7)"><g clip-path="url(#clip8)"><g clip-path="url(#clip9)"><path d="M1548.01 1486.25 1515.34 1523 1548.01 1559.75 1580.67 1523 1548.01 1486.25Z" fill="#FF0000"/></g></g></g></g></svg>