<svg width="421" height="681" xmlns="http://www.w3.org/2000/svg" xmlns:xlink="http://www.w3.org/1999/xlink" xml:space="preserve" overflow="hidden"><defs><clipPath id="clip0"><rect x="839" y="1328" width="421" height="681"/></clipPath><clipPath id="clip1"><rect x="942" y="1565" width="215" height="214"/></clipPath><clipPath id="clip2"><rect x="942" y="1565" width="215" height="214"/></clipPath><clipPath id="clip3"><rect x="942" y="1565" width="215" height="214"/></clipPath><clipPath id="clip4"><rect x="894" y="1468" width="99" height="100"/></clipPath><clipPath id="clip5"><rect x="894" y="1468" width="99" height="100"/></clipPath><clipPath id="clip6"><rect x="894" y="1468" width="99" height="100"/></clipPath><clipPath id="clip7"><rect x="1105" y="1769" width="100" height="99"/></clipPath><clipPath id="clip8"><rect x="1105" y="1769" width="100" height="99"/></clipPath><clipPath id="clip9"><rect x="1105" y="1769" width="100" height="99"/></clipPath></defs><g clip-path="url(#clip0)" transform="translate(-839 -1328)"><path d="M847.5 1413C847.5 1375.72 877.721 1345.5 915.001 1345.5L1185 1345.5C1222.28 1345.5 1252.5 1375.72 1252.5 1413L1252.5 1932C1252.5 1969.28 1222.28 1999.5 1185 1999.5L915.001 1999.5C877.721 1999.5 847.5 1969.28 847.5 1932Z" stroke="#000000" stroke-width="4.58333" stroke-miterlimit="8" fill="#FFFFFF" fill-rule="evenodd"/><text font-family="Times New Roman,Times,serif" font-weight="800" font-size="110" transform="matrix(1 0 0 1 905.656 1467)">A</text><text font-family="Times New Roman,Times,serif" font-weight="800" font-size="110" transform="matrix(-1 1.22465e-16 -1.22465e-16 -1 1193.47 1870)">A</text><g clip-path="url(#clip1)"><g clip-path="url(#clip2)"><g clip-path="url(#clip3)"><path d="M140.904 83.942C137.427 83.9376 133.969 84.4612 130.649 85.4951 144.179 72.1653 144.342 50.3912 131.012 36.8608 117.682 23.3304 95.9082 23.1678 82.3778 36.4976 68.8474 49.8274 68.6848 71.6015 82.0146 85.1319 82.1348 85.254 82.2558 85.3749 82.3778 85.4951 64.2515 79.8012 44.9415 89.8796 39.2475 108.006 33.5535 126.132 43.6317 145.442 61.7581 151.136 74.4771 155.132 88.3591 151.419 97.3854 141.607 96.1429 161.911 92.4265 180.48 83.587 187.11L129.44 187.11C120.6 180.48 116.884 161.911 115.641 141.607 128.504 155.571 150.251 156.463 164.214 143.6 178.177 130.737 179.069 108.99 166.207 95.0269 159.694 87.9564 150.517 83.9365 140.904 83.942Z" transform="matrix(1 0 0 1.00469 943 1565)"/></g></g></g><g clip-path="url(#clip4)"><g clip-path="url(#clip5)"><g clip-path="url(#clip6)"><path d="M64.829 38.6212C63.2292 38.6191 61.6382 38.8601 60.1107 39.3358 66.336 33.2028 66.4108 23.1846 60.2778 16.9594 54.1449 10.7342 44.1267 10.6593 37.9015 16.7923 31.6762 22.9253 31.6014 32.9434 37.7344 39.1686 37.7897 39.2248 37.8453 39.2804 37.9015 39.3358 29.5617 36.716 20.6773 41.353 18.0575 49.6927 15.4378 58.0325 20.0747 66.917 28.4145 69.5368 34.2664 71.375 40.6535 69.6668 44.8064 65.1526 44.2347 74.4943 42.5248 83.0376 38.4578 86.0879L59.5544 86.0879C55.4874 83.0376 53.7775 74.4943 53.2058 65.1526 59.1239 71.577 69.1295 71.9874 75.5539 66.0693 81.9783 60.1513 82.3887 50.1457 76.4706 43.7213 73.4739 40.4682 69.252 38.6186 64.829 38.6212Z" transform="matrix(1 0 0 1.0102 894 1469)"/></g></g></g><g clip-path="url(#clip7)"><g clip-path="url(#clip8)"><g clip-path="url(#clip9)"><path d="M64.829 38.6212C63.2292 38.6191 61.6382 38.8601 60.1107 39.3358 66.336 33.2028 66.4108 23.1846 60.2778 16.9594 54.1449 10.7342 44.1267 10.6593 37.9015 16.7923 31.6762 22.9253 31.6014 32.9434 37.7344 39.1686 37.7897 39.2248 37.8453 39.2804 37.9015 39.3358 29.5617 36.716 20.6773 41.353 18.0575 49.6927 15.4378 58.0325 20.0747 66.917 28.4145 69.5368 34.2664 71.375 40.6535 69.6668 44.8064 65.1526 44.2347 74.4943 42.5248 83.0376 38.4578 86.0879L59.5544 86.0879C55.4874 83.0376 53.7775 74.4943 53.2058 65.1526 59.1239 71.577 69.1295 71.9874 75.5539 66.0693 81.9783 60.1513 82.3887 50.1457 76.4706 43.7213 73.4739 40.4682 69.252 38.6186 64.829 38.6212Z" transform="matrix(1 0 0 -1 1106 1868)"/></g></g></g></g></svg>