<svg width="1568" height="333" xmlns="http://www.w3.org/2000/svg" xmlns:xlink="http://www.w3.org/1999/xlink" xml:space="preserve" overflow="hidden"><defs><filter id="fx0" x="-10%" y="-10%" width="120%" height="120%" filterUnits="userSpaceOnUse" primitiveUnits="userSpaceOnUse"><feComponentTransfer color-interpolation-filters="sRGB"><feFuncR type="discrete" tableValues="0.498039 0.498039"/><feFuncG type="discrete" tableValues="0.498039 0.498039"/><feFuncB type="discrete" tableValues="0.498039 0.498039"/><feFuncA type="linear" slope="1" intercept="0"/></feComponentTransfer><feGaussianBlur stdDeviation="1.24914 1.24914"/></filter><clipPath id="clip1"><rect x="1416" y="1071" width="1568" height="333"/></clipPath><clipPath id="clip2"><rect x="1" y="1" width="1485" height="183"/></clipPath><clipPath id="clip3"><rect x="0" y="0" width="1487" height="185"/></clipPath></defs><g clip-path="url(#clip1)" transform="translate(-1416 -1071)"><g clip-path="url(#clip2)" filter="url(#fx0)" transform="translate(1473 1159)"><g clip-path="url(#clip3)"><path d="M1354.56 118.954C1347.15 120.006 1341.62 121.94 1337.98 124.757 1334.34 127.574 1332.52 132.397 1332.52 139.226 1332.52 147.75 1335.39 152.012 1341.11 152.012 1344.32 152.012 1347.36 150.011 1350.24 146.007 1353.12 142.003 1354.56 134.159 1354.56 122.473ZM737.755 77.1765C733.818 77.1765 730.887 79.4051 728.96 83.8622 727.034 88.3194 726.071 98.3414 726.071 113.928 726.071 128.428 726.901 138.178 728.561 143.179 730.221 148.18 733.286 150.68 737.755 150.68 742.047 150.68 745.068 148.168 746.818 143.144 748.568 138.12 749.442 128.382 749.442 113.928 749.442 98.9532 748.518 89.0841 746.669 84.3211 744.821 79.558 741.849 77.1765 737.755 77.1765ZM192.755 77.1765C188.818 77.1765 185.887 79.4051 183.961 83.8622 182.034 88.3194 181.071 98.3414 181.071 113.928 181.071 128.428 181.901 138.178 183.561 143.179 185.221 148.18 188.286 150.68 192.755 150.68 197.047 150.68 200.069 148.168 201.818 143.144 203.568 138.12 204.442 128.382 204.442 113.928 204.442 98.9532 203.518 89.0841 201.67 84.3211 199.821 79.558 196.849 77.1765 192.755 77.1765ZM481.269 75.9656C472.701 75.9656 468.382 83.1908 468.31 97.6414L494.477 97.6414C494.471 97.7612 494.468 97.4585 494.468 96.7332 494.468 82.8881 490.068 75.9656 481.269 75.9656ZM533.27 51.5046 570.365 51.5046 582.331 124.433 593.755 51.5046 630.492 51.5046 639.74 124.365 653.437 51.5046 684.153 51.5046 653.579 176.231 621.54 176.231 608.186 94.6878 595.138 176.231 563.924 176.231ZM865.985 49.9304C867.664 49.9304 870.409 50.2842 874.22 50.9919L874.22 88.0655C869.846 87.7489 867.139 87.5906 866.097 87.5906 851.491 87.5906 844.188 99.1241 844.188 122.191L844.188 176.231 805.681 176.231 805.681 51.5046 840.192 51.5046 840.192 80.4404C842.544 60.1004 851.141 49.9304 865.985 49.9304ZM737.755 49.0828C771.864 49.0828 788.919 70.6785 788.919 113.87 788.919 157.139 771.864 178.774 737.755 178.774 703.648 178.774 686.595 157.139 686.595 113.87 686.595 70.6785 703.648 49.0828 737.755 49.0828ZM480.586 49.0828C494.904 49.0828 506.872 54.1911 516.491 64.4078 526.109 74.6244 530.919 93.7752 530.919 121.86L468.071 121.86 468.071 126.076C468.071 136.308 469.312 142.967 471.792 146.052 474.273 149.138 477.477 150.68 481.407 150.68 490.119 150.68 495.111 143.859 496.381 130.216L530.919 132.335C525.32 163.294 508.621 178.774 480.822 178.774 463.734 178.774 450.757 173.006 441.892 161.469 433.027 149.932 428.595 134.659 428.595 115.65 428.595 94.2457 433.293 77.8 442.691 66.3131 452.088 54.8262 464.72 49.0828 480.586 49.0828ZM323.958 49.0828C339.563 49.0828 348.441 55.3368 350.593 67.8447 354.448 55.3368 363.931 49.0828 379.042 49.0828 387.362 49.0828 394.082 50.6535 399.2 53.795 404.318 56.9365 407.86 61.1723 409.826 66.5023 411.791 71.8323 412.774 81.4779 412.774 95.439L412.774 176.231 374.267 176.231 374.267 98.9053C374.267 90.3467 373.779 85.0296 372.803 82.954 371.827 80.8784 369.683 79.8406 366.371 79.8406 362.271 79.8406 359.575 81.2792 358.283 84.1564 356.991 87.0337 356.345 93.6516 356.345 104.01L356.345 176.231 317.837 176.231 317.837 97.8363C317.837 89.6826 317.372 84.6449 316.441 82.7232 315.511 80.8014 313.382 79.8406 310.055 79.8406 305.746 79.8406 302.858 81.3577 301.39 84.392 299.922 87.4263 299.188 93.9657 299.188 104.01L299.188 176.231 260.681 176.231 260.681 51.5046 297.372 51.5046 297.372 67.8447C300.333 55.3368 309.194 49.0828 323.958 49.0828ZM192.755 49.0828C226.864 49.0828 243.919 70.6785 243.919 113.87 243.919 157.139 226.864 178.774 192.755 178.774 158.648 178.774 141.595 157.139 141.595 113.87 141.595 70.6785 158.648 49.0828 192.755 49.0828ZM1347.91 48.9617C1359.65 48.9617 1369.16 51.2688 1376.44 55.8829 1383.72 60.4971 1388.31 65.8514 1390.21 71.9458 1392.12 78.0403 1393.07 87.1768 1393.07 99.3556L1393.07 147.21C1393.07 161.797 1393.76 171.471 1395.13 176.231L1359.64 176.231C1358.08 171.679 1357.29 165.545 1357.29 157.829 1352.61 171.792 1342.49 178.774 1326.94 178.774 1316.95 178.774 1308.8 175.759 1302.5 169.729 1296.2 163.699 1293.05 154.972 1293.05 143.549 1293.05 129.404 1297.71 118.467 1307.02 110.737 1316.34 103.008 1332.18 98.4594 1354.56 97.0908L1354.56 94.8203C1354.56 87.2342 1353.91 82.1953 1352.62 79.7034 1351.32 77.2115 1348.85 75.9656 1345.21 75.9656 1338.29 75.9656 1334.4 82.101 1333.52 94.3718L1297.04 91.0474C1298.64 76.689 1304.05 66.0851 1313.29 59.2357 1322.53 52.3864 1334.07 48.9617 1347.91 48.9617ZM1457.18 13.6023 1457.18 51.5046 1479.22 51.5046 1479.22 82.7468 1457.18 82.7468 1457.18 124.394C1457.18 132.503 1457.33 137.573 1457.63 139.603 1457.93 141.633 1458.84 143.261 1460.36 144.485 1461.88 145.709 1464.72 146.321 1468.88 146.321 1471.93 146.321 1475.94 146.24 1480.92 146.079L1480.92 175.796C1472.01 177.781 1464.35 178.774 1457.94 178.774 1447.27 178.774 1439.02 176.677 1433.19 172.484 1427.37 168.29 1423.66 163.071 1422.05 156.827 1420.45 150.582 1419.65 140.987 1419.65 128.042L1419.65 82.7468 1406.33 82.7468 1406.33 51.5046 1419.65 51.5046 1419.65 14.7849ZM1178.68 9.36403 1217.19 9.36403 1217.19 64.1608C1220.57 54.0281 1229.54 48.9617 1244.08 48.9617 1252.82 48.9617 1259.78 51.0505 1264.95 55.2283 1270.13 59.406 1273.39 64.597 1274.74 70.8011 1276.09 77.0053 1276.77 85.6928 1276.77 96.8637L1276.77 176.231 1238.26 176.231 1238.26 96.7899C1238.26 89.3969 1237.69 84.7036 1236.56 82.7099 1235.43 80.7163 1233.06 79.7195 1229.44 79.7195 1225.64 79.7195 1222.65 80.7195 1220.46 82.7194 1218.28 84.7193 1217.19 89.7268 1217.19 97.7416L1217.19 176.231 1178.68 176.231ZM882.681 9.36403 921.188 9.36403 921.188 97.7303 951.074 51.5046 985.247 51.5046 954.964 94.5156 988.274 176.231 947.874 176.231 930.085 120.608 921.188 135.723 921.188 176.231 882.681 176.231ZM6.58693 9.36403 47.1533 9.36403 47.1533 74.7546 81.3018 74.7546 81.3018 9.36403 121.868 9.36403 121.868 176.231 81.3018 176.231 81.3018 109.993 47.1533 109.993 47.1533 176.231 6.58693 176.231ZM1104.95 6.82106C1140.32 6.82106 1159.57 29.2594 1162.72 74.1359L1125.27 76.6922C1124.39 52.6348 1117.65 40.6062 1105.06 40.6062 1098.62 40.6062 1093.38 44.1816 1089.34 51.3325 1085.3 58.4833 1083.28 73.0379 1083.28 94.9962 1083.28 114.601 1085.13 127.834 1088.82 134.696 1092.52 141.558 1097.89 144.989 1104.94 144.989 1116.45 144.989 1123.36 134.131 1125.66 112.415L1163.32 114.627C1162.07 134.343 1156.24 149.964 1145.83 161.488 1135.42 173.012 1121.64 178.774 1104.48 178.774 1083.67 178.774 1067.85 171.102 1057.02 155.758 1046.19 140.414 1040.77 119.486 1040.77 92.9755 1040.77 66.2554 1046.15 45.2163 1056.91 29.8582 1067.67 14.5001 1083.68 6.82106 1104.95 6.82106Z" stroke="#FFFFFF" stroke-width="3" stroke-linejoin="round" stroke-miterlimit="10" fill-rule="evenodd"/></g></g><path d="M2819.73 1270.12C2812.31 1271.17 2806.79 1273.1 2803.15 1275.92 2799.51 1278.74 2797.69 1283.56 2797.69 1290.39 2797.69 1298.91 2800.55 1303.18 2806.28 1303.18 2809.48 1303.18 2812.53 1301.17 2815.41 1297.17 2818.29 1293.17 2819.73 1285.32 2819.73 1273.64ZM2202.92 1228.34C2198.98 1228.34 2196.05 1230.57 2194.12 1235.03 2192.2 1239.48 2191.23 1249.51 2191.23 1265.09 2191.23 1279.59 2192.06 1289.34 2193.72 1294.34 2195.38 1299.34 2198.45 1301.84 2202.92 1301.84 2207.21 1301.84 2210.23 1299.33 2211.98 1294.31 2213.73 1289.28 2214.61 1279.55 2214.61 1265.09 2214.61 1250.12 2213.68 1240.25 2211.83 1235.48 2209.98 1230.72 2207.01 1228.34 2202.92 1228.34ZM1657.92 1228.34C1653.98 1228.34 1651.05 1230.57 1649.12 1235.03 1647.2 1239.48 1646.23 1249.51 1646.23 1265.09 1646.23 1279.59 1647.06 1289.34 1648.72 1294.34 1650.38 1299.34 1653.45 1301.84 1657.92 1301.84 1662.21 1301.84 1665.23 1299.33 1666.98 1294.31 1668.73 1289.28 1669.61 1279.55 1669.61 1265.09 1669.61 1250.12 1668.68 1240.25 1666.83 1235.48 1664.98 1230.72 1662.01 1228.34 1657.92 1228.34ZM1946.43 1227.13C1937.86 1227.13 1933.55 1234.35 1933.47 1248.8L1959.64 1248.8C1959.63 1248.92 1959.63 1248.62 1959.63 1247.9 1959.63 1234.05 1955.23 1227.13 1946.43 1227.13ZM1998.43 1202.67 2035.53 1202.67 2047.49 1275.6 2058.92 1202.67 2095.66 1202.67 2104.9 1275.53 2118.6 1202.67 2149.32 1202.67 2118.74 1327.39 2086.7 1327.39 2073.35 1245.85 2060.3 1327.39 2029.09 1327.39ZM2331.15 1201.09C2332.83 1201.09 2335.57 1201.45 2339.38 1202.16L2339.38 1239.23C2335.01 1238.91 2332.3 1238.75 2331.26 1238.75 2316.65 1238.75 2309.35 1250.29 2309.35 1273.35L2309.35 1327.39 2270.84 1327.39 2270.84 1202.67 2305.36 1202.67 2305.36 1231.6C2307.71 1211.26 2316.3 1201.09 2331.15 1201.09ZM2202.92 1200.25C2237.03 1200.25 2254.08 1221.84 2254.08 1265.03 2254.08 1308.3 2237.03 1329.94 2202.92 1329.94 2168.81 1329.94 2151.76 1308.3 2151.76 1265.03 2151.76 1221.84 2168.81 1200.25 2202.92 1200.25ZM1945.75 1200.25C1960.07 1200.25 1972.04 1205.35 1981.65 1215.57 1991.27 1225.79 1996.08 1244.94 1996.08 1273.02L1933.23 1273.02 1933.23 1277.24C1933.23 1287.47 1934.48 1294.13 1936.96 1297.22 1939.44 1300.3 1942.64 1301.84 1946.57 1301.84 1955.28 1301.84 1960.27 1295.02 1961.54 1281.38L1996.08 1283.5C1990.48 1314.46 1973.78 1329.94 1945.99 1329.94 1928.9 1329.94 1915.92 1324.17 1907.06 1312.63 1898.19 1301.1 1893.76 1285.82 1893.76 1266.81 1893.76 1245.41 1898.46 1228.96 1907.85 1217.48 1917.25 1205.99 1929.88 1200.25 1945.75 1200.25ZM1789.12 1200.25C1804.73 1200.25 1813.6 1206.5 1815.76 1219.01 1819.61 1206.5 1829.09 1200.25 1844.21 1200.25 1852.53 1200.25 1859.25 1201.82 1864.36 1204.96 1869.48 1208.1 1873.02 1212.34 1874.99 1217.67 1876.96 1223 1877.94 1232.64 1877.94 1246.6L1877.94 1327.39 1839.43 1327.39 1839.43 1250.07C1839.43 1241.51 1838.94 1236.19 1837.97 1234.12 1836.99 1232.04 1834.85 1231 1831.53 1231 1827.43 1231 1824.74 1232.44 1823.45 1235.32 1822.15 1238.2 1821.51 1244.82 1821.51 1255.17L1821.51 1327.39 1783 1327.39 1783 1249C1783 1240.85 1782.54 1235.81 1781.61 1233.89 1780.67 1231.96 1778.55 1231 1775.22 1231 1770.91 1231 1768.02 1232.52 1766.55 1235.56 1765.09 1238.59 1764.35 1245.13 1764.35 1255.17L1764.35 1327.39 1725.84 1327.39 1725.84 1202.67 1762.54 1202.67 1762.54 1219.01C1765.5 1206.5 1774.36 1200.25 1789.12 1200.25ZM1657.92 1200.25C1692.03 1200.25 1709.08 1221.84 1709.08 1265.03 1709.08 1308.3 1692.03 1329.94 1657.92 1329.94 1623.81 1329.94 1606.76 1308.3 1606.76 1265.03 1606.76 1221.84 1623.81 1200.25 1657.92 1200.25ZM2813.07 1200.13C2824.81 1200.13 2834.32 1202.43 2841.6 1207.05 2848.88 1211.66 2853.47 1217.02 2855.38 1223.11 2857.28 1229.2 2858.23 1238.34 2858.23 1250.52L2858.23 1298.37C2858.23 1312.96 2858.92 1322.63 2860.29 1327.39L2824.8 1327.39C2823.24 1322.84 2822.46 1316.71 2822.46 1308.99 2817.77 1322.96 2807.65 1329.94 2792.11 1329.94 2782.11 1329.94 2773.96 1326.92 2767.66 1320.89 2761.36 1314.86 2758.21 1306.14 2758.21 1294.71 2758.21 1280.57 2762.87 1269.63 2772.18 1261.9 2781.5 1254.17 2797.35 1249.62 2819.73 1248.25L2819.73 1245.98C2819.73 1238.4 2819.08 1233.36 2817.78 1230.87 2816.48 1228.38 2814.01 1227.13 2810.37 1227.13 2803.46 1227.13 2799.56 1233.26 2798.69 1245.54L2762.21 1242.21C2763.8 1227.85 2769.21 1217.25 2778.45 1210.4 2787.69 1203.55 2799.23 1200.13 2813.07 1200.13ZM2922.35 1164.77 2922.35 1202.67 2944.39 1202.67 2944.39 1233.91 2922.35 1233.91 2922.35 1275.56C2922.35 1283.67 2922.5 1288.74 2922.8 1290.77 2923.1 1292.8 2924.01 1294.42 2925.53 1295.65 2927.05 1296.87 2929.89 1297.48 2934.04 1297.48 2937.09 1297.48 2941.11 1297.4 2946.08 1297.24L2946.08 1326.96C2937.17 1328.95 2929.52 1329.94 2923.11 1329.94 2912.43 1329.94 2904.18 1327.84 2898.36 1323.65 2892.53 1319.45 2888.82 1314.23 2887.22 1307.99 2885.61 1301.75 2884.81 1292.15 2884.81 1279.21L2884.81 1233.91 2871.49 1233.91 2871.49 1202.67 2884.81 1202.67 2884.81 1165.95ZM2643.84 1160.53 2682.35 1160.53 2682.35 1215.32C2685.74 1205.19 2694.7 1200.13 2709.24 1200.13 2717.98 1200.13 2724.94 1202.21 2730.12 1206.39 2735.29 1210.57 2738.55 1215.76 2739.9 1221.96 2741.25 1228.17 2741.93 1236.86 2741.93 1248.03L2741.93 1327.39 2703.42 1327.39 2703.42 1247.95C2703.42 1240.56 2702.86 1235.87 2701.73 1233.87 2700.6 1231.88 2698.22 1230.88 2694.6 1230.88 2690.8 1230.88 2687.81 1231.88 2685.63 1233.88 2683.44 1235.88 2682.35 1240.89 2682.35 1248.91L2682.35 1327.39 2643.84 1327.39ZM2347.84 1160.53 2386.35 1160.53 2386.35 1248.89 2416.24 1202.67 2450.41 1202.67 2420.13 1245.68 2453.44 1327.39 2413.04 1327.39 2395.25 1271.77 2386.35 1286.89 2386.35 1327.39 2347.84 1327.39ZM1471.75 1160.53 1512.32 1160.53 1512.32 1225.92 1546.47 1225.92 1546.47 1160.53 1587.03 1160.53 1587.03 1327.39 1546.47 1327.39 1546.47 1261.16 1512.32 1261.16 1512.32 1327.39 1471.75 1327.39ZM2570.11 1157.98C2605.48 1157.98 2624.74 1180.42 2627.88 1225.3L2590.43 1227.86C2589.56 1203.8 2582.82 1191.77 2570.22 1191.77 2563.79 1191.77 2558.55 1195.35 2554.5 1202.5 2550.46 1209.65 2548.44 1224.2 2548.44 1246.16 2548.44 1265.76 2550.29 1279 2553.99 1285.86 2557.68 1292.72 2563.06 1296.15 2570.1 1296.15 2581.62 1296.15 2588.52 1285.29 2590.82 1263.58L2628.48 1265.79C2627.23 1285.51 2621.4 1301.13 2611 1312.65 2600.59 1324.18 2586.8 1329.94 2569.64 1329.94 2548.84 1329.94 2533.02 1322.27 2522.18 1306.92 2511.35 1291.58 2505.94 1270.65 2505.94 1244.14 2505.94 1217.42 2511.32 1196.38 2522.07 1181.02 2532.83 1165.66 2548.85 1157.98 2570.11 1157.98Z" stroke="#FFFFFF" stroke-width="3" stroke-linejoin="round" stroke-miterlimit="10" fill-rule="evenodd"/><text fill="#000000" fill-opacity="0" font-family="Arial,Arial_MSFontService,sans-serif" font-size="171.953" x="1471.75" y="1308.44">Homework Chat</text></g></svg>