<svg width="424" height="681" xmlns="http://www.w3.org/2000/svg" xmlns:xlink="http://www.w3.org/1999/xlink" xml:space="preserve" overflow="hidden"><defs><clipPath id="clip0"><rect x="1019" y="1332" width="424" height="681"/></clipPath></defs><g clip-path="url(#clip0)" transform="translate(-1019 -1332)"><path d="M1026.5 1417.17C1026.5 1379.8 1056.8 1349.5 1094.17 1349.5L1364.83 1349.5C1402.2 1349.5 1432.5 1379.8 1432.5 1417.17L1432.5 1935.83C1432.5 1973.2 1402.2 2003.5 1364.83 2003.5L1094.17 2003.5C1056.8 2003.5 1026.5 1973.2 1026.5 1935.83Z" stroke="#000000" stroke-width="4.58333" stroke-miterlimit="8" fill="#FFFFFF" fill-rule="evenodd"/><text fill="#FF0000" font-family="Times New Roman,Times,serif" font-weight="800" font-size="110" transform="matrix(1 0 0 1 1085.04 1471)">A</text><text fill="#FF0000" font-family="Times New Roman,Times,serif" font-weight="800" font-size="110" transform="matrix(-1 1.22465e-16 -1.22465e-16 -1 1376.33 1873)">A</text><path d="M1124 1501C1136.5 1466 1185.25 1501 1124 1546 1062.75 1501 1111.5 1466 1124 1501Z" fill="#FF0000" fill-rule="evenodd"/><path d="M30.5001 15C43.2085-20.0001 92.7711 15 30.5001 60.0002-31.7709 15 17.7917-20.0001 30.5001 15Z" fill="#FF0000" fill-rule="evenodd" transform="matrix(1 0 0 -1 1305 1860)"/><path d="M1229 1640.5C1256.08 1564.67 1361.71 1640.5 1229 1738 1096.29 1640.5 1201.92 1564.67 1229 1640.5Z" fill="#FF0000" fill-rule="evenodd"/></g></svg>