<svg width="421" height="681" xmlns="http://www.w3.org/2000/svg" xmlns:xlink="http://www.w3.org/1999/xlink" xml:space="preserve" overflow="hidden"><defs><clipPath id="clip0"><rect x="1258" y="1330" width="421" height="681"/></clipPath><clipPath id="clip1"><rect x="1313" y="1476" width="99" height="99"/></clipPath><clipPath id="clip2"><rect x="1313" y="1476" width="99" height="99"/></clipPath><clipPath id="clip3"><rect x="1313" y="1476" width="99" height="99"/></clipPath><clipPath id="clip4"><rect x="1525" y="1766" width="99" height="99"/></clipPath><clipPath id="clip5"><rect x="1525" y="1766" width="99" height="99"/></clipPath><clipPath id="clip6"><rect x="1525" y="1766" width="99" height="99"/></clipPath><clipPath id="clip7"><rect x="1361" y="1567" width="215" height="213"/></clipPath><clipPath id="clip8"><rect x="1361" y="1567" width="215" height="213"/></clipPath><clipPath id="clip9"><rect x="1361" y="1567" width="215" height="213"/></clipPath></defs><g clip-path="url(#clip0)" transform="translate(-1258 -1330)"><path d="M1266.5 1415.17C1266.5 1377.8 1296.8 1347.5 1334.17 1347.5L1604.83 1347.5C1642.2 1347.5 1672.5 1377.8 1672.5 1415.17L1672.5 1933.83C1672.5 1971.2 1642.2 2001.5 1604.83 2001.5L1334.17 2001.5C1296.8 2001.5 1266.5 1971.2 1266.5 1933.83Z" stroke="#000000" stroke-width="4.58333" stroke-miterlimit="8" fill="#FFFFFF" fill-rule="evenodd"/><text font-family="Times New Roman,Times,serif" font-weight="800" font-size="110" transform="matrix(1 0 0 1 1324.94 1469)">A</text><text font-family="Times New Roman,Times,serif" font-weight="800" font-size="110" transform="matrix(-1 1.22465e-16 -1.22465e-16 -1 1612.76 1871)">A</text><g clip-path="url(#clip1)"><g clip-path="url(#clip2)"><g clip-path="url(#clip3)"><path d="M1366.17 1540.53C1377.51 1553.59 1392.63 1541.74 1392.63 1530.58 1392.63 1511.67 1362 1488.25 1362 1488.25 1362 1488.25 1331.38 1511.67 1331.38 1530.58 1331.38 1541.73 1346.47 1553.58 1357.81 1540.56L1357.81 1540.81C1357.23 1550.16 1355.52 1558.7 1351.46 1561.75L1372.55 1561.75C1368.49 1558.7 1366.78 1550.16 1366.2 1540.81Z"/></g></g></g><g clip-path="url(#clip4)"><g clip-path="url(#clip5)"><g clip-path="url(#clip6)"><path d="M53.1691 64.5269C64.5085 77.5945 79.625 65.7416 79.625 54.5778 79.625 35.6659 49 12.25 49 12.25 49 12.25 18.3811 35.6659 18.3811 54.5778 18.3811 65.7345 33.469 77.5762 44.8064 64.5585L44.8064 64.8137C44.2337 74.1564 42.5238 82.6997 38.4568 85.75L59.5544 85.75C55.4864 82.6997 53.7775 74.1564 53.2048 64.8137Z" transform="matrix(1 0 0 -1 1526 1865)"/></g></g></g><g clip-path="url(#clip7)"><g clip-path="url(#clip8)"><g clip-path="url(#clip9)"><path d="M115.561 140.247C140.207 168.649 173.062 142.887 173.062 118.623 173.062 77.5186 106.5 26.625 106.5 26.625 106.5 26.625 39.9508 77.5186 39.9508 118.623 39.9508 142.872 72.7439 168.609 97.3853 140.316L97.3853 140.871C96.1406 161.176 92.4241 179.745 83.5847 186.375L129.44 186.375C120.598 179.745 116.884 161.176 115.639 140.871Z" transform="matrix(1 0 0 1 1362 1567)"/></g></g></g></g></svg>